<svg version="1.1" id="Layer_1" xmlns="http://www.w3.org/2000/svg" xmlns:xlink="http://www.w3.org/1999/xlink" x="0px" y="0px" width="100%" viewBox="0 0 1280 1280" enable-background="new 0 0 1280 1280" xml:space="preserve">

<path fill="#FDFEFD" opacity="1.000000" stroke="none" d="
M336.000000,1079.003540 
	C327.500061,1079.003540 319.480255,1078.644531 311.504669,1079.085327 
	C298.494598,1079.804077 290.705750,1072.312378 283.949768,1062.728516 
	C281.439941,1059.168213 278.685791,1055.779419 276.028259,1052.323853 
	C270.224457,1044.777588 270.469360,1035.893555 270.433228,1027.073730 
	C270.384949,1015.279541 270.184845,1003.482605 270.378296,991.692261 
	C270.481842,985.382507 271.772766,979.401245 275.377594,973.785767 
	C277.530731,970.431763 277.459625,965.729248 279.126709,961.959473 
	C280.536987,958.770569 283.057587,956.083069 285.003082,953.118774 
	C293.630280,939.973694 302.313202,926.864014 310.804718,913.631714 
	C316.336609,905.011292 321.470734,896.136169 326.968964,887.493469 
	C334.557495,875.564819 342.360687,863.773010 349.997070,851.874573 
	C355.725067,842.949646 361.219879,833.872925 367.057739,825.021545 
	C369.202026,821.770386 372.054199,818.989380 374.541351,815.959351 
	C375.557953,814.720825 376.685059,813.500183 377.383026,812.084656 
	C382.685699,801.330322 389.588440,791.725098 396.938263,782.244202 
	C407.192139,769.017090 416.350708,754.940796 425.966339,741.219727 
	C426.238464,740.831360 426.257507,740.185852 426.597290,739.936462 
	C436.522766,732.651184 439.594696,720.244446 447.761841,711.653564 
	C450.659790,708.605225 453.541656,705.541626 457.219849,701.650269 
	C452.377563,702.532104 448.304321,703.435547 444.184113,703.990112 
	C435.966187,705.096008 427.724213,706.024719 419.488953,706.999817 
	C411.082886,707.995239 402.674866,708.975586 394.263794,709.927979 
	C390.696503,710.331848 387.126343,710.839478 383.545319,710.972351 
	C355.125183,712.027344 326.708191,713.287659 298.277588,713.888184 
	C283.205475,714.206604 268.095123,713.618408 253.026627,712.913513 
	C241.252243,712.362671 229.362473,711.841248 217.811203,709.733032 
	C208.647736,708.060608 199.868439,704.145386 191.014664,700.958984 
	C184.272568,698.532471 177.802460,695.312012 170.995667,693.112183 
	C159.649323,689.445251 152.267700,681.576172 148.216385,671.000671 
	C145.176208,663.064575 142.469925,655.355408 137.452011,648.184937 
	C134.006790,643.261658 132.378311,636.171326 132.230469,629.994751 
	C131.656662,606.022339 131.809143,582.025757 132.086166,558.042725 
	C132.216888,546.725891 137.663574,537.365601 146.245499,530.517395 
	C155.401917,523.210754 165.185226,516.574219 175.243256,510.562653 
	C180.144547,507.633148 186.193878,506.322388 191.900070,505.109283 
	C201.504471,503.067444 211.224960,501.516449 220.948013,500.115723 
	C224.701782,499.574921 228.611618,500.228821 232.422989,499.956055 
	C245.814621,498.997681 259.187927,497.780884 272.581207,496.849518 
	C279.574982,496.363190 286.596893,496.289429 293.604492,495.992188 
	C313.552032,495.146149 333.498810,494.281006 353.460327,493.422729 
	C347.000061,486.158142 341.136383,477.847534 333.614563,471.502655 
	C321.905884,461.626007 308.570953,453.677094 296.862976,443.799713 
	C286.592957,435.135406 276.991211,425.473785 268.257446,415.258270 
	C261.196106,406.998993 255.876923,397.252197 249.765167,388.178589 
	C245.075912,381.216827 243.097427,373.425903 243.029449,365.163330 
	C242.910187,350.664398 242.737228,336.157532 243.089630,321.666199 
	C243.314270,312.429016 244.224396,303.360626 249.450043,294.976990 
	C251.692734,291.378998 250.307083,285.695496 252.007187,281.548798 
	C256.365051,270.919617 260.681976,260.110565 266.583160,250.318344 
	C274.000275,238.010712 286.296783,233.051956 300.416748,231.844254 
	C304.262421,231.515350 307.855560,228.714020 311.728516,228.124710 
	C320.070770,226.855392 328.503021,225.855408 336.928558,225.533371 
	C348.708466,225.083176 360.515808,225.322189 372.311432,225.322937 
	C381.800049,225.323532 390.732513,228.345978 399.894012,230.250748 
	C408.903168,232.123871 416.646759,236.286758 424.388977,240.800934 
	C426.135284,241.819153 428.159698,242.442017 430.128662,242.982498 
	C438.920471,245.395874 445.886536,250.882141 452.804871,256.408112 
	C459.973663,262.134094 467.040314,267.989471 474.080505,273.873383 
	C475.288147,274.882690 476.064423,276.390350 477.171356,277.541443 
	C479.814789,280.290222 482.478851,283.024323 485.239868,285.653748 
	C489.671295,289.873901 494.265381,293.925110 498.646362,298.195831 
	C502.962769,302.403564 507.299377,306.620728 511.264099,311.151428 
	C516.045837,316.615753 520.375732,322.472687 525.032410,328.050140 
	C528.659241,332.394073 532.486755,336.570404 537.130310,341.850555 
	C537.130310,331.343048 537.140198,322.139008 537.128296,312.934937 
	C537.101318,292.058533 536.924744,271.181213 537.065674,250.306000 
	C537.240051,224.478760 536.407654,198.553436 538.432556,172.861435 
	C539.829529,155.137665 538.885376,137.477325 540.178650,119.866249 
	C540.919800,109.774162 543.268127,99.771263 545.297363,89.810623 
	C547.372986,79.622391 554.168884,72.479965 562.102783,66.490486 
	C571.051331,59.735043 579.874451,53.004868 587.293152,44.411194 
	C594.233093,36.372051 604.149658,33.425495 614.347717,33.139286 
	C632.500000,32.629852 650.773376,31.850145 668.811768,33.370590 
	C682.451111,34.520241 696.936523,34.514687 709.115417,42.696350 
	C712.351746,44.870487 715.113037,47.786430 717.953064,50.507320 
	C721.856079,54.246643 725.201660,58.716904 729.537903,61.825256 
	C740.035278,69.350204 743.840454,80.428947 748.281799,91.812531 
	C753.729919,105.776779 753.307434,120.126907 753.786865,134.398483 
	C754.691833,161.340805 755.075806,188.318512 754.845215,215.274399 
	C754.705627,231.581177 752.997314,247.874176 752.015320,264.174683 
	C751.928955,265.608734 752.003784,267.052521 752.003784,268.794708 
	C758.569397,262.816315 764.993164,257.345886 770.972900,251.426834 
	C778.530945,243.945374 785.134399,235.390808 793.239624,228.600128 
	C802.063049,221.207748 812.186890,215.379120 821.647949,208.732391 
	C829.464111,203.241333 838.064575,200.279358 847.505920,198.797287 
	C852.571899,198.002060 857.218140,194.825165 862.254089,193.463531 
	C867.124207,192.146744 872.237061,191.235260 877.268372,191.103607 
	C889.759766,190.776672 902.265381,190.984070 914.765320,190.999817 
	C925.479248,191.013321 935.786377,192.482742 945.749512,197.051559 
	C952.796997,200.283340 960.498657,202.115799 967.954773,204.422501 
	C976.431091,207.044785 982.590576,213.058426 988.906250,218.739075 
	C992.941467,222.368637 996.224304,226.822922 1000.156738,230.580612 
	C1009.558899,239.564850 1014.004150,251.023300 1014.789185,263.433380 
	C1015.793091,279.303406 1014.925354,295.283020 1015.491516,311.193085 
	C1015.781616,319.346344 1014.895203,327.098724 1012.028809,334.663361 
	C1011.130981,337.032806 1010.421814,339.611023 1008.956543,341.600372 
	C1005.635925,346.108643 1005.699829,351.380493 1005.060974,356.459167 
	C1003.532349,368.610077 996.915039,377.757996 988.427490,385.955505 
	C981.540649,392.606964 975.068420,399.712189 967.919678,406.061493 
	C959.700012,413.361847 950.849304,419.947296 942.471985,427.077484 
	C940.270386,428.951385 938.942810,431.813904 936.976624,434.010071 
	C931.226013,440.432892 925.394958,446.785095 919.520752,453.095551 
	C914.221863,458.787933 908.832214,464.395874 903.465393,470.024719 
	C902.058838,471.500031 900.543335,472.872498 899.155518,474.364441 
	C893.251953,480.711060 887.377441,487.084747 880.986023,493.996094 
	C886.291077,493.996094 891.165283,493.880676 896.032471,494.015869 
	C918.428894,494.637787 940.825928,495.257385 963.217834,496.021027 
	C979.045654,496.560791 994.864380,497.363159 1010.689575,497.987244 
	C1028.577881,498.692657 1046.466919,499.398102 1064.359741,499.975739 
	C1079.801392,500.474274 1095.252441,500.688416 1110.692627,501.224945 
	C1123.384888,501.665985 1136.089233,502.110352 1148.748047,503.077881 
	C1161.401245,504.045013 1174.095825,505.105652 1186.604858,507.149292 
	C1199.790405,509.303406 1210.094604,515.836487 1214.263428,529.650635 
	C1216.276978,536.322693 1219.460571,542.706543 1220.859009,549.480042 
	C1222.126343,555.619202 1221.874756,562.107605 1221.962158,568.446594 
	C1222.111938,579.300110 1222.267944,590.166199 1221.902588,601.009460 
	C1221.689209,607.342346 1219.741577,613.178650 1214.796143,617.873840 
	C1211.276855,621.215088 1207.900513,624.999451 1205.523682,629.189270 
	C1200.843384,637.439453 1192.981567,638.821167 1184.894897,639.968201 
	C1176.534912,641.153931 1168.132812,642.039429 1159.753052,643.088745 
	C1154.921509,643.693787 1150.115601,644.672119 1145.267700,644.945923 
	C1130.620605,645.773010 1115.959717,646.355957 1101.302490,647.000000 
	C1085.640747,647.688171 1069.968262,648.176880 1054.317261,649.052063 
	C1040.585693,649.819946 1026.881226,651.057922 1013.157654,651.983765 
	C1002.185303,652.723938 991.201904,653.299988 980.224182,653.961365 
	C963.471130,654.970581 946.719666,656.005554 929.965820,657.000793 
	C918.307190,657.693420 906.653198,658.680786 894.984009,658.933838 
	C869.230774,659.492310 843.468445,659.616455 817.711670,660.032715 
	C808.956604,660.174194 800.204468,660.606384 791.457336,661.035522 
	C789.758118,661.118835 788.088379,661.803711 786.049622,662.296997 
	C789.503845,665.583496 792.647766,668.857361 796.084106,671.788391 
	C804.559998,679.018005 813.308472,685.932373 821.687500,693.270264 
	C830.088989,700.627869 838.098694,708.431030 846.423645,715.878479 
	C853.744629,722.427673 862.385132,727.866211 868.381470,735.429565 
	C874.406982,743.029846 882.190674,748.143250 888.976929,754.584778 
	C898.326172,763.459290 907.602600,772.411072 916.863770,781.377747 
	C925.310486,789.555908 934.800598,796.978516 941.714233,806.303467 
	C946.237366,812.404114 951.697388,816.021729 957.387207,820.236084 
	C961.432861,823.232666 963.754150,828.461731 967.572754,831.881897 
	C973.886230,837.536804 981.027832,842.264526 987.369629,847.891113 
	C993.258667,853.116028 998.427429,859.143494 1004.155518,864.561523 
	C1009.401306,869.523315 1015.027222,874.080444 1020.384399,878.927795 
	C1028.568115,886.332458 1036.934937,893.563416 1044.729248,901.362549 
	C1054.213867,910.853210 1060.070679,922.192871 1060.007812,936.052551 
	C1059.934814,952.114136 1060.006104,968.176514 1059.926147,984.238037 
	C1059.916626,986.147766 1059.464478,988.081604 1059.020630,989.957764 
	C1057.808960,995.078857 1056.780396,1000.268555 1055.159912,1005.262512 
	C1051.223633,1017.392212 1042.550049,1023.001465 1029.920532,1023.488525 
	C1014.459351,1024.084717 999.023315,1025.336182 983.561951,1025.921631 
	C975.113342,1026.241577 966.623840,1026.001221 958.172485,1025.599731 
	C947.395752,1025.087646 938.408325,1020.114746 930.618042,1013.039795 
	C922.875549,1006.008118 913.156982,1001.692810 906.186035,993.344604 
	C901.753296,988.036072 894.422485,985.194641 888.544495,981.030701 
	C884.067627,977.859375 879.885803,974.275085 875.478577,971.001221 
	C860.535461,959.900818 848.108276,945.709106 831.503052,936.533203 
	C824.206055,932.501038 818.440491,925.742004 811.826050,920.411804 
	C808.436584,917.680481 804.696777,915.385925 801.136414,912.864258 
	C792.200134,906.534973 783.071838,900.452087 774.423096,893.750854 
	C769.228821,889.726135 764.945740,884.545959 759.950867,880.235291 
	C757.130615,877.801331 753.612793,876.195923 750.557373,874.010193 
	C742.295593,868.100037 734.113098,862.079102 725.003784,855.450623 
	C725.003784,857.669556 725.003784,859.341125 725.003784,861.012695 
	C725.003723,893.845825 725.193909,926.680542 724.912231,959.511230 
	C724.795593,973.101990 723.547424,986.679504 723.031006,1000.271240 
	C722.377380,1017.475647 722.027710,1034.691406 721.391296,1051.896606 
	C720.884460,1065.601562 719.927124,1079.292114 719.564880,1092.999512 
	C719.148010,1108.772217 719.485535,1124.568970 718.867615,1140.330566 
	C718.530334,1148.936279 718.199890,1157.932007 715.490540,1165.948975 
	C712.579102,1174.563965 709.625488,1184.033569 702.160706,1190.118530 
	C693.727539,1196.992920 684.092651,1201.117798 672.597351,1200.440308 
	C663.042175,1199.877075 653.409119,1200.801880 643.815735,1200.674194 
	C634.575134,1200.551270 625.156677,1201.552734 616.426575,1196.996826 
	C614.224487,1195.847778 611.548523,1195.302490 609.040771,1195.103394 
	C602.725525,1194.601929 598.577393,1190.990234 594.710022,1186.433228 
	C592.275879,1183.564941 588.995605,1181.430786 586.403320,1178.677002 
	C582.027344,1174.028320 579.521423,1168.652954 579.429504,1161.973022 
	C579.283142,1151.333984 578.844238,1140.673462 577.895020,1130.078735 
	C577.056702,1120.722290 575.233459,1111.458008 574.091248,1102.122925 
	C573.664124,1098.632080 574.063904,1095.048584 573.861328,1091.520386 
	C572.949890,1075.649536 572.165955,1059.766968 570.924988,1043.921021 
	C570.017578,1032.333740 568.262634,1020.814575 567.260864,1009.232605 
	C565.971924,994.331055 565.164734,979.388489 563.953430,964.479492 
	C562.762268,949.818787 561.060242,935.195679 560.082214,920.522827 
	C559.334961,909.313904 559.466797,898.048950 559.003967,886.817261 
	C558.820312,882.361267 558.086914,877.927979 557.650146,873.910645 
	C551.577393,882.252808 545.406799,890.857239 539.071167,899.338379 
	C537.574341,901.342041 535.363098,902.798218 533.750977,904.731750 
	C522.754944,917.921082 512.991211,932.069946 500.628082,944.215088 
	C493.170258,951.541443 487.485901,960.673035 481.004333,968.993164 
	C480.405731,969.761597 479.868622,970.589905 479.195068,971.286072 
	C474.858276,975.767944 470.516174,980.139221 466.844635,985.321899 
	C462.760834,991.086487 457.047333,995.665161 452.453552,1001.106384 
	C441.453308,1014.135742 430.796936,1027.455688 419.781158,1040.471558 
	C415.902740,1045.054077 411.188049,1048.921997 407.209961,1053.429321 
	C403.462189,1057.675781 400.092896,1062.268799 396.718018,1066.828491 
	C392.657806,1072.314209 386.692413,1073.999634 380.598602,1076.151001 
	C366.067505,1081.281128 351.180634,1077.981079 336.000000,1079.003540 
M372.050568,1039.506226 
	C378.687683,1031.863281 385.409973,1024.291992 391.929047,1016.549744 
	C395.675140,1012.100647 398.925507,1007.232605 402.693542,1002.803833 
	C409.357635,994.971313 416.321442,987.394348 423.021851,979.591980 
	C430.893890,970.425354 438.600128,961.116455 446.413086,951.898804 
	C454.898193,941.888123 463.423309,931.911255 471.931366,921.920044 
	C474.295715,919.143555 476.653839,916.361633 479.027710,913.593323 
	C482.590149,909.438904 486.233093,905.351440 489.718079,901.133301 
	C496.470978,892.959534 503.253845,884.806152 509.815063,876.479492 
	C521.929016,861.106018 533.918518,845.634155 545.884705,830.145325 
	C547.396973,828.187927 548.292419,825.761169 549.754211,823.756470 
	C558.640198,811.570862 567.606262,799.443665 576.548523,787.299133 
	C578.200256,785.055908 579.865295,782.822449 581.524170,780.584412 
	C582.249634,781.017517 582.975037,781.450684 583.700500,781.883789 
	C583.700500,786.147888 583.631226,790.413391 583.712891,794.675964 
	C584.018799,810.642822 585.334961,826.663757 584.423950,842.558533 
	C583.613342,856.701782 587.547119,870.328796 586.213745,884.630615 
	C584.876648,898.972168 587.357544,913.680908 588.300232,928.219971 
	C589.004028,939.076050 591.317505,949.685669 590.998718,960.783386 
	C590.653625,972.798401 592.543030,984.965210 594.337524,996.933899 
	C597.128662,1015.550354 597.605469,1034.288086 598.605103,1053.015869 
	C599.064087,1061.616699 600.049988,1070.194946 600.978394,1078.763672 
	C602.032288,1088.491333 603.599304,1098.172363 604.374146,1107.918945 
	C605.214661,1118.490967 605.241638,1129.125366 605.928284,1139.712769 
	C606.359436,1146.361084 609.757935,1151.654053 614.720581,1155.997681 
	C617.096069,1158.076782 619.140503,1160.670044 621.795654,1162.262207 
	C625.983032,1164.773315 630.490234,1166.798096 634.996826,1168.711426 
	C637.538330,1169.790405 640.494446,1169.906372 643.014099,1171.020752 
	C654.860779,1176.260254 673.891602,1170.563721 680.691223,1159.478271 
	C681.809387,1157.655273 682.470154,1155.550415 683.329773,1153.570435 
	C683.989441,1152.051025 684.757751,1150.563843 685.255737,1148.991943 
	C687.292053,1142.564331 690.020081,1136.227051 691.016113,1129.633301 
	C692.100769,1122.453247 691.473755,1115.023315 691.728577,1107.707031 
	C692.085815,1097.450317 692.584778,1087.198364 692.974731,1076.942627 
	C693.018555,1075.791016 692.651550,1074.628418 692.643494,1073.469604 
	C692.616089,1069.522705 692.524170,1065.567993 692.728821,1061.630371 
	C692.883850,1058.648438 693.704651,1055.695801 693.797302,1052.716675 
	C694.297485,1036.632446 694.609253,1020.542419 695.092041,1004.457520 
	C695.475952,991.666382 696.070801,978.881470 696.454895,966.090271 
	C696.634216,960.119995 696.366089,954.134521 696.605408,948.168152 
	C696.937805,939.878601 697.986206,931.599121 697.956970,923.318054 
	C697.907349,909.239502 697.252441,895.163330 696.868530,881.085632 
	C696.845886,880.257019 697.011780,879.424866 697.022156,878.593506 
	C697.280151,857.960754 697.568359,837.328369 697.762817,816.695007 
	C697.859070,806.484375 697.779602,796.272095 697.779602,785.259949 
	C700.945129,787.626648 703.844238,789.732788 706.677612,791.924072 
	C715.460510,798.716309 724.228210,805.528198 732.974854,812.366943 
	C734.266602,813.376892 735.465576,814.521240 736.616699,815.692627 
	C740.686462,819.833984 744.402649,824.386780 748.819641,828.111572 
	C763.755493,840.707092 781.929504,849.210205 794.790710,864.483887 
	C796.130859,866.075562 798.341797,866.922485 800.115540,868.162354 
	C811.838562,876.356873 824.383972,883.623169 835.036072,893.031982 
	C845.719421,902.468445 857.184509,910.409546 869.221741,917.769409 
	C870.481995,918.539978 871.598755,919.560364 872.727112,920.528992 
	C884.192261,930.371399 895.426453,940.499207 907.179871,949.983826 
	C915.050598,956.335205 923.824829,961.553772 931.887390,967.683533 
	C942.847595,976.016113 953.331909,984.980347 964.380798,993.188416 
	C970.247498,997.546692 977.280518,999.230469 984.737122,998.525696 
	C991.344055,997.901245 997.969055,997.463867 1004.572998,996.812073 
	C1007.708618,996.502625 1010.889038,996.164612 1013.916809,995.348755 
	C1019.631104,993.808960 1024.879395,990.617004 1026.698120,985.051453 
	C1029.604248,976.158630 1032.620605,966.894531 1033.001831,957.680359 
	C1033.561035,944.164001 1026.699341,933.333862 1016.411438,924.460571 
	C1006.242920,915.690063 996.571899,906.340088 986.745178,897.177185 
	C983.114868,893.792175 979.712524,890.163940 976.118774,886.738281 
	C969.528259,880.456177 963.047668,874.041321 956.185059,868.067993 
	C951.322571,863.835632 945.666260,860.512390 940.827637,856.256592 
	C937.885620,853.668884 936.455322,848.953491 933.246765,847.156372 
	C924.466370,842.238708 918.924561,834.521057 912.608948,827.179077 
	C906.060364,819.566467 898.105957,813.163940 890.774902,806.223267 
	C880.765503,796.746887 870.718018,787.309875 860.774109,777.765076 
	C853.131592,770.429199 845.915771,762.623596 837.998840,755.603638 
	C817.862671,737.749268 797.319702,720.353882 777.167603,702.517273 
	C759.593079,686.962036 742.250977,671.140869 724.975464,655.253174 
	C719.635864,650.342590 714.851501,644.828247 709.192749,638.945557 
	C712.795837,638.145142 715.499512,637.129578 718.244019,637.003662 
	C733.531433,636.302368 748.829163,635.828125 764.122498,635.254578 
	C786.744812,634.406189 809.361450,633.365723 831.989685,632.733276 
	C851.736206,632.181335 871.509888,632.450195 891.244324,631.667847 
	C908.268127,630.992920 925.247986,629.263794 942.257263,628.154785 
	C960.677856,626.953857 979.114380,625.998047 997.535583,624.806335 
	C1008.982910,624.065735 1020.403992,622.887512 1031.856445,622.267883 
	C1043.570923,621.634094 1055.318848,621.623474 1067.035278,621.017639 
	C1087.953857,619.936035 1108.867432,618.726013 1129.767212,617.329956 
	C1137.506348,616.812988 1145.206787,615.671570 1152.911621,614.709229 
	C1155.672241,614.364502 1158.385132,613.328186 1161.135010,613.264526 
	C1170.320557,613.051941 1176.938843,608.950073 1181.482056,601.031555 
	C1182.850952,598.645813 1184.600342,596.337158 1186.631836,594.497192 
	C1195.979614,586.030945 1197.758789,575.228882 1191.427124,564.291321 
	C1190.440430,562.586853 1189.102661,560.781372 1188.958008,558.941528 
	C1187.657471,542.397888 1173.311768,534.056946 1158.447998,532.619019 
	C1149.281616,531.732300 1140.087158,531.106323 1130.894897,530.527832 
	C1119.804688,529.829834 1108.709229,529.144104 1097.605347,528.758850 
	C1088.821533,528.454102 1080.014038,528.825562 1071.230591,528.514282 
	C1056.888794,528.006042 1042.600098,525.245850 1028.189331,527.683472 
	C1027.136230,527.861633 1025.958374,527.097534 1024.823608,527.032349 
	C1018.763245,526.684631 1012.626282,525.742249 1006.661194,526.375610 
	C1002.975586,526.766907 999.637817,527.548462 996.101929,525.947754 
	C994.614807,525.274536 992.899353,524.899780 991.262146,524.796753 
	C979.357788,524.047974 967.454041,523.198792 955.536072,522.785278 
	C944.476379,522.401550 933.399536,522.472595 922.329895,522.434143 
	C917.025513,522.415710 911.709778,522.864197 906.418152,522.644775 
	C897.789001,522.286926 889.182129,521.373108 880.552551,521.048462 
	C875.255554,520.849182 869.872559,521.903442 864.634521,521.363403 
	C849.161743,519.768066 833.784302,519.432678 818.324341,521.665649 
	C814.676025,522.192566 810.745667,520.766174 806.264832,520.143799 
	C807.443176,518.360596 807.883972,517.455933 808.535156,516.743469 
	C820.193359,503.988739 831.679321,491.068604 843.606079,478.569275 
	C858.077881,463.402649 873.079834,448.742126 887.568909,433.591522 
	C902.115479,418.380737 914.299622,400.845520 931.987427,388.744141 
	C932.394043,388.465942 932.713989,388.059540 933.069214,387.707794 
	C942.408386,378.459045 951.423828,368.851135 961.176575,360.061310 
	C970.901794,351.296478 977.116211,341.087128 978.733887,327.995667 
	C979.189392,324.309509 980.392761,320.532745 982.070862,317.210571 
	C992.090637,297.373535 990.285034,278.169006 977.527771,260.666412 
	C971.249817,252.053253 962.670593,244.965317 954.459900,237.977768 
	C950.414001,234.534607 944.979492,232.537918 939.923401,230.510010 
	C932.216248,227.418823 924.210815,225.075394 916.481018,222.035645 
	C907.038513,218.322342 897.370667,216.866516 887.610718,219.656937 
	C877.088379,222.665298 866.039612,225.116714 856.596069,230.311630 
	C842.527954,238.050446 828.464233,246.658096 816.652771,257.379364 
	C806.289795,266.785736 797.201721,277.786621 786.421753,286.961365 
	C785.539062,287.712616 784.763489,288.607574 784.023743,289.506256 
	C776.314392,298.873047 768.422363,308.098358 760.974548,317.669189 
	C750.650635,330.935699 740.429688,344.295959 730.609253,357.936127 
	C723.026611,368.468170 716.135376,379.497620 708.909668,390.287842 
	C708.314392,391.176727 707.512451,391.927216 706.806519,392.742004 
	C705.956360,390.422913 706.080078,388.399872 706.399353,386.408173 
	C709.021545,370.048035 713.767212,353.695984 713.784790,337.337067 
	C713.805481,318.076599 719.508484,299.885681 720.546387,280.950958 
	C721.236938,268.354950 723.785583,255.869476 724.732422,243.276642 
	C725.929077,227.361450 726.571228,211.393356 726.988220,195.435959 
	C727.169434,188.500641 725.917542,181.539474 725.806458,174.582230 
	C725.629150,163.476883 725.760315,152.363342 725.945679,141.256332 
	C726.168640,127.885788 721.308655,115.778915 716.549622,103.722191 
	C713.603821,96.259254 707.871094,90.864456 701.209229,86.369888 
	C698.391724,84.469002 695.772278,81.997299 693.722473,79.286278 
	C686.850403,70.196991 678.017700,64.512039 666.740479,62.788063 
	C660.333984,61.808685 653.906494,60.951809 647.472778,60.168415 
	C631.652039,58.242012 618.269897,62.582840 607.690857,75.058388 
	C603.980835,79.433487 599.596191,83.425095 594.927124,86.763100 
	C580.613464,96.996132 569.717102,109.100784 569.584717,127.978714 
	C569.574402,129.451447 569.112732,130.941345 568.727539,132.387802 
	C566.535645,140.618027 566.631775,148.840958 568.447632,157.134232 
	C568.899292,159.196838 568.873962,161.439163 568.663635,163.558762 
	C567.583008,174.447388 566.338135,185.319656 565.236267,196.206299 
	C565.053223,198.014511 564.918030,199.971939 565.401672,201.678772 
	C567.746277,209.952225 566.765747,218.149200 565.332947,226.390900 
	C564.993347,228.344330 565.027954,230.376953 565.027954,232.373138 
	C565.028442,252.299683 565.448975,272.236084 564.946289,292.149414 
	C564.590820,306.232452 566.847412,320.398834 563.738037,334.423553 
	C563.209839,336.805786 563.535645,339.409027 563.663574,341.900085 
	C564.719299,362.459839 567.577087,382.950897 565.914917,403.615784 
	C565.756470,405.585815 566.161621,407.599274 566.281494,409.593994 
	C567.046997,422.332794 567.805786,435.071991 568.566772,447.811066 
	C566.201477,445.708344 564.698303,443.208160 563.111633,440.762085 
	C559.498779,435.192474 556.020020,429.524506 552.168030,424.123932 
	C545.899414,415.335205 538.857605,407.059753 533.054749,397.984131 
	C513.854248,367.954590 489.549774,342.177917 465.179840,316.537994 
	C459.227539,310.275513 452.591095,304.361542 446.100830,298.535950 
	C432.134003,285.999420 418.141541,273.141724 399.491302,267.446411 
	C397.776489,266.922760 396.231537,265.796204 394.657562,264.865356 
	C380.841034,256.694489 365.410919,252.143661 349.896942,253.123062 
	C335.757111,254.015701 321.905975,259.511566 307.938385,263.021454 
	C307.158081,263.217560 306.448334,263.762634 305.752747,264.217194 
	C288.038940,275.792633 281.797791,294.095306 277.017212,313.252655 
	C276.260529,316.284851 275.902405,319.489685 274.677765,322.319366 
	C269.149139,335.093750 267.536346,348.348755 274.980316,360.321167 
	C283.820068,374.538422 292.922699,389.217865 304.748535,400.800232 
	C320.835358,416.555908 339.628387,429.544220 357.207916,443.784729 
	C359.891846,445.958893 362.366211,448.409973 364.805634,450.864044 
	C370.537048,456.629761 376.065521,462.602295 381.910675,468.248322 
	C386.804443,472.975433 392.237061,477.150085 397.067352,481.936462 
	C407.923737,492.694183 418.539978,503.693970 429.303070,514.546509 
	C430.197235,515.448120 431.462982,515.981201 432.556122,516.685425 
	C432.317322,517.132690 432.078491,517.579956 431.839691,518.027222 
	C429.952637,518.315308 428.071533,518.801819 426.177551,518.858582 
	C415.539398,519.177856 404.895935,519.323914 394.258392,519.658813 
	C370.321198,520.412476 346.385376,521.213074 322.452118,522.080444 
	C319.637207,522.182495 316.851776,522.937195 314.034668,523.182678 
	C310.899719,523.455933 307.744812,523.509033 304.597443,523.628357 
	C297.974518,523.879578 291.306244,523.711487 284.737823,524.443970 
	C274.548065,525.580322 264.600464,528.680176 254.077606,526.420715 
	C250.523788,525.657715 246.503693,526.950500 242.713531,527.435425 
	C238.601807,527.961609 234.451630,528.386230 230.420486,529.304199 
	C220.254684,531.619324 209.487000,532.757568 200.195419,537.044189 
	C190.373535,541.575439 181.736176,548.883911 173.022324,555.555115 
	C161.688339,564.232361 157.241776,576.214722 158.135223,590.320923 
	C158.419128,594.803284 158.728683,599.289551 158.812561,603.777954 
	C158.980148,612.746460 161.863754,620.665955 167.045822,627.983154 
	C169.185425,631.004333 170.892380,634.578064 171.838852,638.153870 
	C175.244339,651.019592 182.280945,660.830627 194.708145,666.073914 
	C204.975525,670.405945 215.251953,674.907104 225.893890,678.102844 
	C235.049866,680.852478 244.660904,682.520264 254.190475,683.491516 
	C268.733582,684.973572 283.373230,685.586426 297.985870,686.267883 
	C303.434143,686.522034 308.923279,685.964783 314.390717,685.711243 
	C316.707306,685.603882 319.012634,685.266724 321.328766,685.134521 
	C341.753510,683.969421 362.227234,683.356323 382.590912,681.520081 
	C400.808136,679.877380 418.895172,676.819519 437.059113,674.541199 
	C443.490326,673.734497 449.999878,673.560852 456.436951,672.790894 
	C469.157684,671.269470 481.866730,669.632202 494.551849,667.839294 
	C499.803528,667.096985 504.960693,665.707520 510.198120,664.836792 
	C516.116150,663.852844 522.076111,663.120972 528.017883,662.279480 
	C523.804199,669.644104 519.133362,675.615601 514.596497,681.687134 
	C507.140533,691.665161 499.694580,701.652588 492.395355,711.745239 
	C488.225586,717.510742 484.582611,723.665833 480.278534,729.322998 
	C476.680389,734.052246 472.126373,738.061279 468.594421,742.832520 
	C460.906158,753.218567 453.576660,763.871155 446.149506,774.449280 
	C443.476746,778.255859 441.093048,782.271667 438.319611,786.000305 
	C430.602600,796.375366 422.598969,806.539734 414.992828,816.994202 
	C406.915680,828.096069 401.587189,841.066162 391.814636,851.057556 
	C389.871674,853.044067 388.596527,855.702332 387.102509,858.106262 
	C378.073883,872.632996 369.236389,887.281921 359.997437,901.673340 
	C354.520782,910.204224 348.234528,918.212524 342.667511,926.689148 
	C338.298767,933.341064 334.573090,940.411621 330.384888,947.186890 
	C324.801819,956.218750 319.369476,965.371338 313.263885,974.043640 
	C308.429718,980.909973 303.362335,987.437744 302.667664,996.229431 
	C302.586151,997.260803 301.517639,998.215454 300.903046,999.203369 
	C294.652588,1009.248901 295.547913,1019.360657 303.248383,1028.204224 
	C305.625885,1030.934814 307.693939,1033.958740 309.703369,1036.981445 
	C316.310272,1046.920044 324.635712,1053.529785 337.455536,1051.941528 
	C339.092438,1051.738647 340.831451,1052.229736 342.438202,1051.935425 
	C352.978699,1050.004395 364.203369,1049.685181 372.050568,1039.506226 
z" data-index="1" style="opacity: 1;"></path>
<path fill="#42881E" opacity="1.000000" stroke="none" d="
M371.850220,1039.803467 
	C364.203369,1049.685181 352.978699,1050.004395 342.438202,1051.935425 
	C340.831451,1052.229736 339.092438,1051.738647 337.455536,1051.941528 
	C324.635712,1053.529785 316.310272,1046.920044 309.703369,1036.981445 
	C307.693939,1033.958740 305.625885,1030.934814 303.248383,1028.204224 
	C295.547913,1019.360657 294.652588,1009.248901 300.903046,999.203369 
	C301.517639,998.215454 302.586151,997.260803 302.667664,996.229431 
	C303.362335,987.437744 308.429718,980.909973 313.263885,974.043640 
	C319.369476,965.371338 324.801819,956.218750 330.384888,947.186890 
	C334.573090,940.411621 338.298767,933.341064 342.667511,926.689148 
	C348.234528,918.212524 354.520782,910.204224 359.997437,901.673340 
	C369.236389,887.281921 378.073883,872.632996 387.102509,858.106262 
	C388.596527,855.702332 389.871674,853.044067 391.814636,851.057556 
	C401.587189,841.066162 406.915680,828.096069 414.992828,816.994202 
	C422.598969,806.539734 430.602600,796.375366 438.319611,786.000305 
	C441.093048,782.271667 443.476746,778.255859 446.149506,774.449280 
	C453.576660,763.871155 460.906158,753.218567 468.594421,742.832520 
	C472.126373,738.061279 476.680389,734.052246 480.278534,729.322998 
	C484.582611,723.665833 488.225586,717.510742 492.395355,711.745239 
	C499.694580,701.652588 507.140533,691.665161 514.596497,681.687134 
	C519.133362,675.615601 523.804199,669.644104 528.017883,662.279480 
	C522.076111,663.120972 516.116150,663.852844 510.198120,664.836792 
	C504.960693,665.707520 499.803528,667.096985 494.551849,667.839294 
	C481.866730,669.632202 469.157684,671.269470 456.436951,672.790894 
	C449.999878,673.560852 443.490326,673.734497 437.059113,674.541199 
	C418.895172,676.819519 400.808136,679.877380 382.590912,681.520081 
	C362.227234,683.356323 341.753510,683.969421 321.328766,685.134521 
	C319.012634,685.266724 316.707306,685.603882 314.390717,685.711243 
	C308.923279,685.964783 303.434143,686.522034 297.985870,686.267883 
	C283.373230,685.586426 268.733582,684.973572 254.190475,683.491516 
	C244.660904,682.520264 235.049866,680.852478 225.893890,678.102844 
	C215.251953,674.907104 204.975525,670.405945 194.708145,666.073914 
	C182.280945,660.830627 175.244339,651.019592 171.838852,638.153870 
	C170.892380,634.578064 169.185425,631.004333 167.045822,627.983154 
	C161.863754,620.665955 158.980148,612.746460 158.812561,603.777954 
	C158.728683,599.289551 158.419128,594.803284 158.135223,590.320923 
	C157.241776,576.214722 161.688339,564.232361 173.022324,555.555115 
	C181.736176,548.883911 190.373535,541.575439 200.195419,537.044189 
	C209.487000,532.757568 220.254684,531.619324 230.420486,529.304199 
	C234.451630,528.386230 238.601807,527.961609 242.713531,527.435425 
	C246.503693,526.950500 250.523788,525.657715 254.077606,526.420715 
	C264.600464,528.680176 274.548065,525.580322 284.737823,524.443970 
	C291.306244,523.711487 297.974518,523.879578 304.597443,523.628357 
	C307.744812,523.509033 310.899719,523.455933 314.034668,523.182678 
	C316.851776,522.937195 319.637207,522.182495 322.452118,522.080444 
	C346.385376,521.213074 370.321198,520.412476 394.258392,519.658813 
	C404.895935,519.323914 415.539398,519.177856 426.177551,518.858582 
	C428.071533,518.801819 429.952637,518.315308 431.839691,518.027222 
	C432.078491,517.579956 432.317322,517.132690 432.556122,516.685425 
	C431.462982,515.981201 430.197235,515.448120 429.303070,514.546509 
	C418.539978,503.693970 407.923737,492.694183 397.067352,481.936462 
	C392.237061,477.150085 386.804443,472.975433 381.910675,468.248322 
	C376.065521,462.602295 370.537048,456.629761 364.805634,450.864044 
	C362.366211,448.409973 359.891846,445.958893 357.207916,443.784729 
	C339.628387,429.544220 320.835358,416.555908 304.748535,400.800232 
	C292.922699,389.217865 283.820068,374.538422 274.980316,360.321167 
	C267.536346,348.348755 269.149139,335.093750 274.677765,322.319366 
	C275.902405,319.489685 276.260529,316.284851 277.017212,313.252655 
	C281.797791,294.095306 288.038940,275.792633 305.752747,264.217194 
	C306.448334,263.762634 307.158081,263.217560 307.938385,263.021454 
	C321.905975,259.511566 335.757111,254.015701 349.896942,253.123062 
	C365.410919,252.143661 380.841034,256.694489 394.657562,264.865356 
	C396.231537,265.796204 397.776489,266.922760 399.491302,267.446411 
	C418.141541,273.141724 432.134003,285.999420 446.100830,298.535950 
	C452.591095,304.361542 459.227539,310.275513 465.179840,316.537994 
	C489.549774,342.177917 513.854248,367.954590 533.054749,397.984131 
	C538.857605,407.059753 545.899414,415.335205 552.168030,424.123932 
	C556.020020,429.524506 559.498779,435.192474 563.111633,440.762085 
	C564.698303,443.208160 566.201477,445.708344 568.566772,447.811066 
	C567.805786,435.071991 567.046997,422.332794 566.281494,409.593994 
	C566.161621,407.599274 565.756470,405.585815 565.914917,403.615784 
	C567.577087,382.950897 564.719299,362.459839 563.663574,341.900085 
	C563.535645,339.409027 563.209839,336.805786 563.738037,334.423553 
	C566.847412,320.398834 564.590820,306.232452 564.946289,292.149414 
	C565.448975,272.236084 565.028442,252.299683 565.027954,232.373138 
	C565.027954,230.376953 564.993347,228.344330 565.332947,226.390900 
	C566.765747,218.149200 567.746277,209.952225 565.401672,201.678772 
	C564.918030,199.971939 565.053223,198.014511 565.236267,196.206299 
	C566.338135,185.319656 567.583008,174.447388 568.663635,163.558762 
	C568.873962,161.439163 568.899292,159.196838 568.447632,157.134232 
	C566.631775,148.840958 566.535645,140.618027 568.727539,132.387802 
	C569.112732,130.941345 569.574402,129.451447 569.584717,127.978714 
	C569.717102,109.100784 580.613464,96.996132 594.927124,86.763100 
	C599.596191,83.425095 603.980835,79.433487 607.690857,75.058388 
	C618.269897,62.582840 631.652039,58.242012 647.472778,60.168415 
	C653.906494,60.951809 660.333984,61.808685 666.740479,62.788063 
	C678.017700,64.512039 686.850403,70.196991 693.722473,79.286278 
	C695.772278,81.997299 698.391724,84.469002 701.209229,86.369888 
	C707.871094,90.864456 713.603821,96.259254 716.549622,103.722191 
	C721.308655,115.778915 726.168640,127.885788 725.945679,141.256332 
	C725.760315,152.363342 725.629150,163.476883 725.806458,174.582230 
	C725.917542,181.539474 727.169434,188.500641 726.988220,195.435959 
	C726.571228,211.393356 725.929077,227.361450 724.732422,243.276642 
	C723.785583,255.869476 721.236938,268.354950 720.546387,280.950958 
	C719.508484,299.885681 713.805481,318.076599 713.784790,337.337067 
	C713.767212,353.695984 709.021545,370.048035 706.399353,386.408173 
	C706.080078,388.399872 705.956360,390.422913 706.806519,392.742004 
	C707.512451,391.927216 708.314392,391.176727 708.909668,390.287842 
	C716.135376,379.497620 723.026611,368.468170 730.609253,357.936127 
	C740.429688,344.295959 750.650635,330.935699 760.974548,317.669189 
	C768.422363,308.098358 776.314392,298.873047 784.023743,289.506256 
	C784.763489,288.607574 785.539062,287.712616 786.421753,286.961365 
	C797.201721,277.786621 806.289795,266.785736 816.652771,257.379364 
	C828.464233,246.658096 842.527954,238.050446 856.596069,230.311630 
	C866.039612,225.116714 877.088379,222.665298 887.610718,219.656937 
	C897.370667,216.866516 907.038513,218.322342 916.481018,222.035645 
	C924.210815,225.075394 932.216248,227.418823 939.923401,230.510010 
	C944.979492,232.537918 950.414001,234.534607 954.459900,237.977768 
	C962.670593,244.965317 971.249817,252.053253 977.527771,260.666412 
	C990.285034,278.169006 992.090637,297.373535 982.070862,317.210571 
	C980.392761,320.532745 979.189392,324.309509 978.733887,327.995667 
	C977.116211,341.087128 970.901794,351.296478 961.176575,360.061310 
	C951.423828,368.851135 942.408386,378.459045 933.069214,387.707794 
	C932.713989,388.059540 932.394043,388.465942 931.987427,388.744141 
	C914.299622,400.845520 902.115479,418.380737 887.568909,433.591522 
	C873.079834,448.742126 858.077881,463.402649 843.606079,478.569275 
	C831.679321,491.068604 820.193359,503.988739 808.535156,516.743469 
	C807.883972,517.455933 807.443176,518.360596 806.264832,520.143799 
	C810.745667,520.766174 814.676025,522.192566 818.324341,521.665649 
	C833.784302,519.432678 849.161743,519.768066 864.634521,521.363403 
	C869.872559,521.903442 875.255554,520.849182 880.552551,521.048462 
	C889.182129,521.373108 897.789001,522.286926 906.418152,522.644775 
	C911.709778,522.864197 917.025513,522.415710 922.329895,522.434143 
	C933.399536,522.472595 944.476379,522.401550 955.536072,522.785278 
	C967.454041,523.198792 979.357788,524.047974 991.262146,524.796753 
	C992.899353,524.899780 994.614807,525.274536 996.101929,525.947754 
	C999.637817,527.548462 1002.975586,526.766907 1006.661194,526.375610 
	C1012.626282,525.742249 1018.763245,526.684631 1024.823608,527.032349 
	C1025.958374,527.097534 1027.136230,527.861633 1028.189331,527.683472 
	C1042.600098,525.245850 1056.888794,528.006042 1071.230591,528.514282 
	C1080.014038,528.825562 1088.821533,528.454102 1097.605347,528.758850 
	C1108.709229,529.144104 1119.804688,529.829834 1130.894897,530.527832 
	C1140.087158,531.106323 1149.281616,531.732300 1158.447998,532.619019 
	C1173.311768,534.056946 1187.657471,542.397888 1188.958008,558.941528 
	C1189.102661,560.781372 1190.440430,562.586853 1191.427124,564.291321 
	C1197.758789,575.228882 1195.979614,586.030945 1186.631836,594.497192 
	C1184.600342,596.337158 1182.850952,598.645813 1181.482056,601.031555 
	C1176.938843,608.950073 1170.320557,613.051941 1161.135010,613.264526 
	C1158.385132,613.328186 1155.672241,614.364502 1152.911621,614.709229 
	C1145.206787,615.671570 1137.506348,616.812988 1129.767212,617.329956 
	C1108.867432,618.726013 1087.953857,619.936035 1067.035278,621.017639 
	C1055.318848,621.623474 1043.570923,621.634094 1031.856445,622.267883 
	C1020.403992,622.887512 1008.982910,624.065735 997.535583,624.806335 
	C979.114380,625.998047 960.677856,626.953857 942.257263,628.154785 
	C925.247986,629.263794 908.268127,630.992920 891.244324,631.667847 
	C871.509888,632.450195 851.736206,632.181335 831.989685,632.733276 
	C809.361450,633.365723 786.744812,634.406189 764.122498,635.254578 
	C748.829163,635.828125 733.531433,636.302368 718.244019,637.003662 
	C715.499512,637.129578 712.795837,638.145142 709.192749,638.945557 
	C714.851501,644.828247 719.635864,650.342590 724.975464,655.253174 
	C742.250977,671.140869 759.593079,686.962036 777.167603,702.517273 
	C797.319702,720.353882 817.862671,737.749268 837.998840,755.603638 
	C845.915771,762.623596 853.131592,770.429199 860.774109,777.765076 
	C870.718018,787.309875 880.765503,796.746887 890.774902,806.223267 
	C898.105957,813.163940 906.060364,819.566467 912.608948,827.179077 
	C918.924561,834.521057 924.466370,842.238708 933.246765,847.156372 
	C936.455322,848.953491 937.885620,853.668884 940.827637,856.256592 
	C945.666260,860.512390 951.322571,863.835632 956.185059,868.067993 
	C963.047668,874.041321 969.528259,880.456177 976.118774,886.738281 
	C979.712524,890.163940 983.114868,893.792175 986.745178,897.177185 
	C996.571899,906.340088 1006.242920,915.690063 1016.411438,924.460571 
	C1026.699341,933.333862 1033.561035,944.164001 1033.001831,957.680359 
	C1032.620605,966.894531 1029.604248,976.158630 1026.698120,985.051453 
	C1024.879395,990.617004 1019.631104,993.808960 1013.916809,995.348755 
	C1010.889038,996.164612 1007.708618,996.502625 1004.572998,996.812073 
	C997.969055,997.463867 991.344055,997.901245 984.737122,998.525696 
	C977.280518,999.230469 970.247498,997.546692 964.380798,993.188416 
	C953.331909,984.980347 942.847595,976.016113 931.887390,967.683533 
	C923.824829,961.553772 915.050598,956.335205 907.179871,949.983826 
	C895.426453,940.499207 884.192261,930.371399 872.727112,920.528992 
	C871.598755,919.560364 870.481995,918.539978 869.221741,917.769409 
	C857.184509,910.409546 845.719421,902.468445 835.036072,893.031982 
	C824.383972,883.623169 811.838562,876.356873 800.115540,868.162354 
	C798.341797,866.922485 796.130859,866.075562 794.790710,864.483887 
	C781.929504,849.210205 763.755493,840.707092 748.819641,828.111572 
	C744.402649,824.386780 740.686462,819.833984 736.616699,815.692627 
	C735.465576,814.521240 734.266602,813.376892 732.974854,812.366943 
	C724.228210,805.528198 715.460510,798.716309 706.677612,791.924072 
	C703.844238,789.732788 700.945129,787.626648 697.779602,785.259949 
	C697.779602,796.272095 697.859070,806.484375 697.762817,816.695007 
	C697.568359,837.328369 697.280151,857.960754 697.022156,878.593506 
	C697.011780,879.424866 696.845886,880.257019 696.868530,881.085632 
	C697.252441,895.163330 697.907349,909.239502 697.956970,923.318054 
	C697.986206,931.599121 696.937805,939.878601 696.605408,948.168152 
	C696.366089,954.134521 696.634216,960.119995 696.454895,966.090271 
	C696.070801,978.881470 695.475952,991.666382 695.092041,1004.457520 
	C694.609253,1020.542419 694.297485,1036.632446 693.797302,1052.716675 
	C693.704651,1055.695801 692.883850,1058.648438 692.728821,1061.630371 
	C692.524170,1065.567993 692.616089,1069.522705 692.643494,1073.469604 
	C692.651550,1074.628418 693.018555,1075.791016 692.974731,1076.942627 
	C692.584778,1087.198364 692.085815,1097.450317 691.728577,1107.707031 
	C691.473755,1115.023315 692.100769,1122.453247 691.016113,1129.633301 
	C690.020081,1136.227051 687.292053,1142.564331 685.255737,1148.991943 
	C684.757751,1150.563843 683.989441,1152.051025 683.329773,1153.570435 
	C682.470154,1155.550415 681.809387,1157.655273 680.691223,1159.478271 
	C673.891602,1170.563721 654.860779,1176.260254 643.014099,1171.020752 
	C640.494446,1169.906372 637.538330,1169.790405 634.996826,1168.711426 
	C630.490234,1166.798096 625.983032,1164.773315 621.795654,1162.262207 
	C619.140503,1160.670044 617.096069,1158.076782 614.720581,1155.997681 
	C609.757935,1151.654053 606.359436,1146.361084 605.928284,1139.712769 
	C605.241638,1129.125366 605.214661,1118.490967 604.374146,1107.918945 
	C603.599304,1098.172363 602.032288,1088.491333 600.978394,1078.763672 
	C600.049988,1070.194946 599.064087,1061.616699 598.605103,1053.015869 
	C597.605469,1034.288086 597.128662,1015.550354 594.337524,996.933899 
	C592.543030,984.965210 590.653625,972.798401 590.998718,960.783386 
	C591.317505,949.685669 589.004028,939.076050 588.300232,928.219971 
	C587.357544,913.680908 584.876648,898.972168 586.213745,884.630615 
	C587.547119,870.328796 583.613342,856.701782 584.423950,842.558533 
	C585.334961,826.663757 584.018799,810.642822 583.712891,794.675964 
	C583.631226,790.413391 583.700500,786.147888 583.700500,781.883789 
	C582.975037,781.450684 582.249634,781.017517 581.524170,780.584412 
	C579.865295,782.822449 578.200256,785.055908 576.548523,787.299133 
	C567.606262,799.443665 558.640198,811.570862 549.754211,823.756470 
	C548.292419,825.761169 547.396973,828.187927 545.884705,830.145325 
	C533.918518,845.634155 521.929016,861.106018 509.815063,876.479492 
	C503.253845,884.806152 496.470978,892.959534 489.718079,901.133301 
	C486.233093,905.351440 482.590149,909.438904 479.027710,913.593323 
	C476.653839,916.361633 474.295715,919.143555 471.931366,921.920044 
	C463.423309,931.911255 454.898193,941.888123 446.413086,951.898804 
	C438.600128,961.116455 430.893890,970.425354 423.021851,979.591980 
	C416.321442,987.394348 409.357635,994.971313 402.693542,1002.803833 
	C398.925507,1007.232605 395.675140,1012.100647 391.929047,1016.549744 
	C385.409973,1024.291992 378.687683,1031.863281 371.850220,1039.803467 
z" data-index="2" style="opacity: 1;"></path>
</svg>